<svg version="1.1" viewBox="0.0 0.0 720.0 720.0" fill="none" stroke="none" stroke-linecap="square" stroke-miterlimit="10" xmlns:xlink="http://www.w3.org/1999/xlink" xmlns="http://www.w3.org/2000/svg"><clipPath id="p.0"><path d="m0 0l720.0 0l0 720.0l-720.0 0l0 -720.0z" clip-rule="nonzero"/></clipPath><g clip-path="url(#p.0)"><path fill="#000000" fill-opacity="0.0" d="m0 0l720.0 0l0 720.0l-720.0 0z" fill-rule="evenodd"/><path fill="#000000" fill-opacity="0.0" d="m23.383202 360.0c0 -182.25397 152.0187 -330.0 339.5433 -330.0c90.05249 0 176.41663 34.767754 240.09338 96.65476c63.676697 61.887 99.44989 145.82379 99.44989 233.34525c0 182.25397 -152.01868 330.0 -339.54327 330.0c-187.5246 0 -339.5433 -147.74603 -339.5433 -330.0z" fill-rule="evenodd"/><path stroke="#000000" stroke-width="24.0" stroke-linejoin="round" stroke-linecap="butt" d="m23.383202 360.0c0 -182.25397 152.0187 -330.0 339.5433 -330.0c90.05249 0 176.41663 34.767754 240.09338 96.65476c63.676697 61.887 99.44989 145.82379 99.44989 233.34525c0 182.25397 -152.01868 330.0 -339.54327 330.0c-187.5246 0 -339.5433 -147.74603 -339.5433 -330.0z" fill-rule="evenodd"/><path fill="#000000" fill-opacity="0.0" d="m54.1916 -9.677165l416.126 0l0 623.77954l-416.126 0z" fill-rule="evenodd"/><path fill="#666666" d="m421.36346 339.98032q-5.84375 0.734375 -15.71875 2.328125q-9.859375 1.578125 -15.9375 4.5q-7.3125 3.65625 -10.359375 10.359375q-3.03125 6.6875 -3.03125 15.6875l0 26.78125q0 29.21875 0.359375 39.453125q0.359375 10.21875 0.859375 16.796875q-32.390625 14.609375 -64.53125 22.390625q-32.140625 7.796875 -63.062485 7.796875q-33.109375 0 -63.796875 -12.40625q-30.671875 -12.421875 -53.5625 -35.3125q-23.125 -23.125 -36.765625 -56.234375q-13.640625 -33.125 -13.640625 -74.03125q0 -39.4375 13.03125 -73.156265q13.03125 -33.734375 36.890625 -58.5625q23.125 -24.359375 55.140625 -37.859375q32.03125 -13.515617 68.546875 -13.515617q29.218735 0 50.89061 7.0624924q21.671875 7.046875 38.234375 17.03125l9.96875 -16.546875l19.484375 0l2.1875 120.765625l-19.953125 0q-5.125 -19.96875 -12.671875 -39.328125q-7.546875 -19.359375 -19.46875 -34.6875q-11.9375 -15.34375 -29.109375 -24.46875q-17.15625 -9.140625 -41.01561 -9.140625q-26.0625 0 -46.515625 10.59375q-20.453125 10.59375 -35.546875 31.53125q-14.84375 20.203125 -22.890625 50.40625q-8.03125 30.187515 -8.03125 67.437515q0 32.875 7.90625 61.96875q7.921875 29.09375 23.015625 50.28125q15.09375 21.671875 37.734375 34.09375q22.65625 12.40625 51.39061 12.40625q21.421875 0 39.0625 -6.5625q17.65625 -6.578125 24.96875 -13.890625q1.953125 -12.65625 2.0625 -25.5625q0.125 -12.90625 0.125 -21.90625l0 -19.0q0 -10.21875 -2.796875 -18.125q-2.796875 -7.921875 -11.5625 -11.578125q-8.03125 -3.65625 -21.796875 -5.46875q-13.75 -1.828125 -21.546875 -2.328125l0 -17.765625l151.45312 0l0 17.765625z" fill-rule="nonzero"/><path fill="#000000" fill-opacity="0.0" d="m231.28609 166.39633l398.23627 0l0 518.7401l-398.23627 0z" fill-rule="evenodd"/><path fill="#783f04" d="m603.5986 570.9163l-126.12497 0l0 -14.28125q6.828125 -0.203125 17.59375 -1.40625q10.765625 -1.21875 14.796875 -3.421875q6.2343445 -3.828125 9.1405945 -8.75q2.921875 -4.9375 2.921875 -12.375l0 -207.60938l-3.015625 0l-97.37497 243.21875l-10.046875 0l-92.75 -248.25l-2.609375 0l0 170.39062q0 24.75 3.109375 37.625q3.125 12.875 9.5625 18.5q4.421875 4.234375 18.296875 8.0625q13.890625 3.8125 18.109375 4.015625l0 14.28125l-115.26564 0l0 -14.28125q9.04689 -0.8125 19.000015 -3.015625q9.96875 -2.21875 15.40625 -6.640625q7.03125 -5.640625 9.640625 -17.296875q2.625 -11.671875 2.625 -39.03125l0 -146.04688q0 -12.6875 -3.015625 -20.734375q-3.015625 -8.046875 -8.65625 -13.0625q-6.234375 -5.4375 -15.296875 -8.046875q-9.046875 -2.625 -17.89064 -3.03125l0 -14.28125l97.35939 0l81.6875 214.04688l69.796875 -179.03125q3.828125 -9.859375 6.546875 -20.625q2.71875 -10.765625 2.90625 -14.390625l93.15622 0l0 14.28125q-5.640625 0.203125 -14.390625 1.8125q-8.75 1.609375 -12.78125 3.015625q-6.828125 2.421875 -9.25 8.0625q-2.40625 5.625 -2.40625 12.265625l0 205.79688q0 7.046875 2.40625 11.875q2.421875 4.828125 9.25 8.4375q3.625 2.015625 12.875 3.734375q9.265625 1.703125 14.6875 1.90625l0 14.28125z" fill-rule="nonzero"/></g></svg>